# xmcd
#
# Track frame offsets:
#	150
#	14589
#	31239
#	52683
#	71504
#	84247
#	98677
#	110152
#	129942
#	150418
#
# Disc length: 2107 seconds
# Revision: 0
# Processed by: cddbd v1.5.2PL0 Copyright (c) Steve Scherf et al.
# Submitted via: dBpowerAMP V12.0
#
DISCID=6d08390a
DTITLE=Hank Mowery - Excuses Plenty
DYEAR=2015
DGENRE=Blues
TTITLE0=Anna Lee
TTITLE1=I Don't Want To Know
TTITLE2=Excuses Plenty
TTITLE3=Walk With Me
TTITLE4=One And Only
TTITLE5=Little Bit Of Rhythm
TTITLE6=Cry For Me
TTITLE7=Would You Still Love Me On A Rainy Day
TTITLE8=Telephone Is Ringing
TTITLE9=I'm So Glad
EXTD=
EXTT0=
EXTT1=
EXTT2=
EXTT3=
EXTT4=
EXTT5=
EXTT6=
EXTT7=
EXTT8=
EXTT9=
PLAYORDER=
